<svg xmlns="http://www.w3.org/2000/svg" viewBox="0 0 512 512">
  <rect width="512" height="512" rx="104" fill="#0b1020"/>
  <g fill="#00bfff" transform="translate(-85.7,-85.8) scale(0.2279)">
    <path d="M1669.04,1385.34c0-47.09-38.17-85.26-85.26-85.26s-85.26,38.17-85.26,85.26c0,9.08,1.45,17.81,4.08,26.02l-237.18,358.04c-45.16,68.19-120.54,109.33-201.66,110.09h-2.55c-59.69,0-115.65-23.41-157.55-65.91-41.88-42.49-64.48-98.78-63.63-158.52,1.64-116,97.2-213.71,213.03-217.8,19.78-.71,39.48,1.19,58.51,5.64,17.84,4.16,35.62-1.47,47.85-13.33,11.16-10.29,17.73-25.35,16.59-41.67-.26-3.66-.45-7.34-.58-11.02-2.97-83.62,26.81-163.39,83.84-224.61,57.03-61.23,134.49-96.58,218.11-99.54,138.36-4.92,265.15,83.3,308.54,214.49,8.98,27.15,38.26,41.88,65.42,32.9,27.15-8.98,41.88-38.27,32.9-65.42-27.74-83.87-82.94-158.27-155.44-209.49-74.95-52.96-163.14-79.18-255.09-75.97-111.26,3.95-214.33,50.98-290.21,132.45-65.17,69.96-103.56,158.13-110.61,252.12-7.81-.28-15.64-.31-23.48-.03-83.16,2.94-161.3,37.64-220.04,97.7-58.71,60.03-91.69,138.92-92.87,222.13-1.25,87.66,31.93,170.3,93.43,232.68,61.52,62.4,143.66,96.77,231.29,96.77h3.22c115.67-.98,223.08-59.47,287.32-156.45l235.96-356.19c45.25-2.06,81.34-39.3,81.34-85.06Z"/>
    <path d="M1259.34,1404.19l-147.39,222.71c-15.78,23.85-9.24,55.97,14.6,71.75,8.79,5.82,18.72,8.61,28.53,8.61,16.79,0,33.27-8.16,43.23-23.21l147.39-222.71c15.78-23.85,9.24-55.97-14.6-71.75-23.85-15.78-55.97-9.25-71.76,14.6Z"/>
    <path d="M1932.75,1606.93c-23.85-15.79-55.98-9.24-71.76,14.6l-143.72,217.16c-15.78,23.85-9.24,55.97,14.6,71.76,8.8,5.82,18.72,8.61,28.53,8.61,16.79,0,33.27-8.16,43.23-23.21l143.72-217.16c15.78-23.85,9.24-55.97-14.6-71.76Z"/>
    <path d="M2173.43,1439.72c-56.75-57.28-132.01-89.95-211.89-92-3.34-.08-6.67-.1-9.97-.1-101.04.59-194.99,52.8-251.31,139.65l-255.17,393.52c-44.46,2.9-79.66,39.78-79.66,84.98s38.17,85.26,85.26,85.26,85.26-38.17,85.26-85.26c0-9.67-1.69-18.93-4.65-27.59l255.85-394.57c37.28-57.5,98.97-92.05,165.03-92.44,2.21-.02,4.45,0,6.69.07,109.05,2.79,199.25,93.83,201.09,202.94.93,55.57-19.89,108.06-58.64,147.79-38.77,39.75-90.68,61.9-146.16,62.35-28.59.23-51.59,23.61-51.35,52.2.23,28.45,23.37,51.35,51.77,51.35.14,0,.29,0,.43,0,83.31-.68,161.24-33.92,219.44-93.6,58.18-59.66,89.45-138.44,88.05-221.83-1.34-79.9-33.33-155.45-90.08-212.72Z"/>
  </g>
</svg>
