<svg xmlns="http://www.w3.org/2000/svg" viewBox="0 0 1200 630">
<defs>
<style>.cls-1{fill:#00bfff}.cls-3{fill:#fff}</style>
<radialGradient id="glow" cx="78%" cy="2%" r="75%">
<stop offset="0" stop-color="#00bfff" stop-opacity="0.20"/>
<stop offset="0.6" stop-color="#00bfff" stop-opacity="0"/>
</radialGradient>
</defs>
<rect width="1200" height="630" fill="#070a12"/>
<rect width="1200" height="630" fill="url(#glow)"/>
<g transform="translate(-1.3,-193.1) scale(0.2248)">
  
  <g>
    <g>
      <path class="cls-3" d="M1333.58,1641.45l-22.19-41.09h-119.68l24.79-46.56h70.13l-54.39-102.42-100.97,190.06h-67.19l132.1-239.54c6.43-11.42,15.4-16.99,27.43-16.99h16.44c12.02,0,21,5.57,27.45,17.03l132.08,239.5h-65.98Z"/>
      <rect class="cls-3" x="1440.49" y="1384.92" width="61.35" height="256.53"/>
      <path class="cls-3" d="M1702.71,1641.45c-12.5,0-21.46-5.52-27.37-16.88l-132.16-239.65h68.83l98.92,186.8,98.92-186.8h68.82l-132.5,239.53c-6.21,11.45-15.04,17-27.02,17h-16.44Z"/>
      <rect class="cls-3" x="1919.61" y="1384.92" width="61.35" height="256.53"/>
      <polygon class="cls-3" points="2036.71 1641.45 2036.71 1384.92 2098.47 1384.92 2098.47 1582.98 2261.19 1582.98 2261.19 1641.45 2036.71 1641.45"/>
      <path class="cls-3" d="M2584.2,1460.85c-6.81-15.58-16.28-29.17-28.16-40.4-11.92-11.25-26.31-20.07-42.81-26.21-16.6-6.2-34.92-9.33-54.46-9.33h-38.62c-19.8,0-38.27,3.13-54.86,9.33-16.51,6.16-30.91,14.98-42.81,26.21-11.88,11.23-21.35,24.82-28.16,40.4-6.79,15.54-10.24,33.14-10.24,52.33s3.45,36.88,10.24,52.56c6.81,15.7,16.28,29.27,28.14,40.36,11.9,11.11,26.3,19.87,42.82,26.03,16.58,6.18,35.04,9.31,54.86,9.31h38.62c19.56,0,37.88-3.13,54.46-9.31,16.51-6.16,30.93-14.93,42.82-26.03,11.86-11.09,21.33-24.68,28.14-40.36,6.79-15.7,10.24-33.39,10.24-52.56s-3.45-36.77-10.24-52.33ZM2528.41,1541.43c-3.41,8.61-8.31,16.07-14.57,22.16-6.23,6.09-13.73,10.9-22.28,14.29-8.54,3.38-17.9,5.09-27.83,5.09h-48.49c-10.23,0-19.73-1.71-28.25-5.09-8.55-3.4-16.05-8.2-22.28-14.28-6.27-6.13-11.18-13.59-14.57-22.18-3.38-8.52-5.1-18.02-5.1-28.25s1.8-19.77,5.33-28.32c3.54-8.55,8.48-16.04,14.71-22.25,6.23-6.25,13.75-11.14,22.34-14.54,8.54-3.38,17.9-5.09,27.83-5.09h48.49c9.91,0,19.27,1.71,27.83,5.09,8.59,3.41,16.11,8.31,22.34,14.54,6.23,6.23,11.12,13.75,14.52,22.34,3.38,8.54,5.1,18.04,5.1,28.23s-1.72,19.71-5.1,28.25Z"/>
    </g>
    <g>
      <path class="cls-1" d="M767.24,1455.53c0-18.26-14.8-33.07-33.07-33.07s-33.07,14.8-33.07,33.07c0,3.52.56,6.91,1.58,10.09l-91.99,138.86c-17.52,26.44-46.75,42.4-78.21,42.69h-.99c-23.15,0-44.85-9.08-61.1-25.56-16.24-16.48-25.01-38.31-24.68-61.48.64-44.99,37.7-82.88,82.62-84.47,7.67-.27,15.31.46,22.69,2.19,6.92,1.61,13.82-.57,18.56-5.17,4.33-3.99,6.88-9.83,6.43-16.16-.1-1.42-.17-2.85-.23-4.27-1.15-32.43,10.4-63.37,32.52-87.11,22.12-23.74,52.16-37.45,84.59-38.6,53.66-1.91,102.83,32.31,119.66,83.19,3.48,10.53,14.84,16.24,25.37,12.76,10.53-3.48,16.24-14.84,12.76-25.37-10.76-32.53-32.17-61.38-60.28-81.25-29.07-20.54-63.27-30.71-98.93-29.46-43.15,1.53-83.12,19.77-112.55,51.37-25.27,27.13-40.16,61.33-42.9,97.78-3.03-.11-6.07-.12-9.11-.01-32.25,1.14-62.56,14.6-85.34,37.89-22.77,23.28-35.56,53.88-36.02,86.15-.49,34,12.38,66.05,36.23,90.24,23.86,24.2,55.71,37.53,89.7,37.53h1.25c44.86-.38,86.52-23.06,111.43-60.68l91.51-138.14c17.55-.8,31.54-15.24,31.54-32.99Z"/>
      <path class="cls-1" d="M608.34,1462.84l-57.16,86.37c-6.12,9.25-3.59,21.71,5.66,27.83,3.41,2.26,7.26,3.34,11.06,3.34,6.51,0,12.9-3.16,16.76-9l57.16-86.37c6.12-9.25,3.59-21.71-5.66-27.83-9.25-6.12-21.71-3.59-27.83,5.66Z"/>
      <path class="cls-1" d="M869.51,1541.47c-9.25-6.12-21.71-3.58-27.83,5.66l-55.74,84.22c-6.12,9.25-3.59,21.71,5.66,27.83,3.41,2.26,7.26,3.34,11.06,3.34,6.51,0,12.9-3.16,16.76-9l55.74-84.22c6.12-9.25,3.59-21.71-5.66-27.83Z"/>
      <path class="cls-1" d="M962.85,1476.62c-22.01-22.21-51.2-34.89-82.18-35.68-1.3-.03-2.59-.04-3.87-.04-39.19.23-75.62,20.48-97.46,54.16l-98.96,152.62c-17.24,1.12-30.89,15.43-30.89,32.96s14.8,33.07,33.07,33.07,33.07-14.8,33.07-33.07c0-3.75-.65-7.34-1.8-10.7l99.22-153.02c14.46-22.3,38.38-35.7,64-35.85.86,0,1.73,0,2.6.03,42.29,1.08,77.28,36.39,77.99,78.7.36,21.55-7.72,41.91-22.74,57.32-15.04,15.42-35.17,24-56.68,24.18-11.09.09-20.01,9.15-19.91,20.25.09,11.03,9.06,19.92,20.08,19.92.06,0,.11,0,.17,0,32.31-.26,62.53-13.16,85.11-36.3,22.56-23.14,34.69-53.69,34.15-86.03-.52-30.99-12.93-60.29-34.93-82.5Z"/>
    </g>
  </g>
</g>
<text x="92" y="352" font-family="Arial,sans-serif" font-size="64" font-weight="700" fill="#ffffff" letter-spacing="-1">Enterprise AI services that</text>
<text x="92" y="428" xml:space="preserve" font-family="Arial,sans-serif" font-size="64" font-weight="700" letter-spacing="-1"><tspan fill="#ffffff">get you to </tspan><tspan fill="#00bfff">production ROI</tspan></text>
<text x="92" y="524" font-family="Arial,sans-serif" font-size="29" fill="#98a1ba">AI Readiness Assessment &#8226; Professional Services &#8226; Managed Services</text>
</svg>
